<?xml version="1.0" standalone="no"?>
<!DOCTYPE svg PUBLIC "-//W3C//DTD SVG 20010904//EN"
 "http://www.w3.org/TR/2001/REC-SVG-20010904/DTD/svg10.dtd">
<svg version="1.0" xmlns="http://www.w3.org/2000/svg"
 width="640.000000pt" height="640.000000pt" viewBox="0 0 640.000000 640.000000"
 preserveAspectRatio="xMidYMid meet">
<metadata>
Created by potrace 1.16, written by Peter Selinger 2001-2019
</metadata>
<g transform="translate(0.000000,640.000000) scale(0.100000,-0.100000)"
fill="#000000" stroke="none">
<path d="M0 3200 l0 -3200 3200 0 3200 0 0 3200 0 3200 -3200 0 -3200 0 0
-3200z m4844 2548 c40 -62 32 -120 -20 -144 l-36 -17 -24 29 c-13 16 -23 34
-24 40 0 16 -52 25 -67 12 -7 -6 -13 -16 -13 -23 0 -25 -29 -39 -55 -27 -21
10 -25 18 -25 56 0 48 9 56 62 56 16 0 41 9 55 20 38 30 127 28 147 -2z m-363
-47 c-13 -10 -40 -24 -60 -31 -20 -7 -49 -18 -66 -25 -16 -7 -66 -28 -110 -46
-122 -51 -202 -100 -191 -117 3 -5 -19 -31 -50 -57 -30 -26 -73 -72 -95 -101
-52 -67 -73 -72 -172 -39 -50 16 -97 25 -140 25 -42 0 -67 4 -69 12 -7 19
-129 -4 -234 -42 -87 -32 -179 -82 -170 -91 3 -3 -4 -5 -15 -6 -25 -2 -51 -22
-43 -34 3 -5 -4 -9 -15 -9 -12 0 -21 -4 -21 -8 0 -5 -10 -14 -22 -20 -13 -7
-43 -28 -68 -47 -64 -49 -80 -58 -80 -44 0 20 124 140 190 184 207 138 404
194 637 181 l122 -7 77 61 c169 134 302 201 519 259 91 25 106 25 76 2z m363
-283 c-12 -22 -19 -62 -21 -118 -3 -103 -11 -152 -22 -145 -5 2 -14 -17 -21
-43 -20 -74 -30 -73 -28 4 2 102 -9 154 -34 154 -11 0 -26 6 -33 14 -8 7 -25
11 -39 9 -26 -5 -42 -28 -26 -38 13 -8 12 -89 0 -135 -34 -129 -43 -160 -48
-155 -4 3 -5 41 -3 84 3 87 -22 191 -46 191 -23 0 -107 -46 -128 -71 -12 -13
-14 -19 -5 -14 8 5 -19 -25 -60 -66 -99 -97 -167 -190 -223 -302 -49 -100 -67
-168 -67 -252 0 -172 76 -258 198 -226 46 13 102 55 102 77 0 8 4 14 9 14 13
0 48 87 72 183 22 90 35 107 44 60 3 -16 10 -43 16 -61 6 -18 9 -70 8 -115 -2
-67 0 -81 12 -79 44 10 105 123 115 213 7 63 20 77 29 32 3 -16 10 -44 15 -63
5 -19 11 -61 14 -93 3 -38 14 -74 31 -103 l26 -45 -21 -91 c-12 -51 -30 -108
-40 -127 -23 -46 -81 -101 -87 -83 -7 18 -20 15 -44 -9 -15 -15 -39 -23 -82
-27 -54 -5 -60 -3 -54 12 5 11 3 15 -5 10 -6 -4 -38 -6 -71 -5 -77 2 -144 -21
-193 -65 -22 -19 -33 -33 -26 -29 18 9 15 -3 -12 -38 -14 -18 -38 -64 -55
-102 -17 -39 -30 -65 -31 -60 0 6 -10 -6 -23 -25 l-22 -35 -3 58 c-4 75 35
164 105 238 78 83 109 97 265 113 151 16 200 34 242 89 27 36 56 107 56 139 0
59 -82 62 -210 8 -41 -18 -103 -41 -137 -52 -38 -12 -63 -26 -63 -34 0 -19
-92 -19 -130 1 -15 8 -50 40 -77 71 l-48 57 0 146 c1 138 3 151 33 240 35 100
90 203 146 270 20 23 86 88 148 143 62 56 160 145 218 198 113 105 165 150
173 150 2 0 2 -29 -1 -65 -4 -54 -2 -66 12 -71 25 -10 62 20 102 84 20 31 42
60 48 64 19 12 19 -48 0 -84z m-1171 -174 c12 -4 17 -16 17 -43 l0 -37 -130
-3 c-93 -2 -130 1 -130 9 0 28 -120 -18 -192 -73 -53 -41 -59 -39 -26 9 28 40
113 97 176 118 92 31 215 39 285 20z m-997 -225 c94 -17 96 -34 6 -42 -41 -3
-141 -53 -142 -70 0 -4 9 -3 19 3 34 18 32 11 -7 -24 -20 -19 -34 -38 -30 -41
4 -4 28 0 55 9 61 21 171 31 204 18 30 -12 49 -65 49 -136 0 -61 -12 -82 -52
-90 -47 -10 -229 -13 -234 -4 -8 13 -54 9 -54 -4 0 -10 -2 -10 -8 -1 -9 14
-74 3 -154 -27 -64 -24 -108 -55 -108 -76 0 -8 -6 -14 -13 -14 -7 0 -20 -12
-29 -27 -16 -26 -17 -27 -18 -6 0 60 49 240 91 331 30 64 81 128 129 162 61
44 183 60 296 39z m1854 6 c0 -3 -9 -16 -21 -29 -49 -56 -119 -171 -143 -235
-30 -77 -47 -201 -41 -299 2 -37 1 -55 -1 -40 -5 25 -8 27 -26 17 -26 -14 -37
-3 -48 46 -25 109 64 342 182 478 34 38 98 79 98 62z m-2027 -567 c-61 -124
-108 -351 -83 -397 11 -22 12 -22 31 -5 11 10 33 40 49 68 39 69 88 116 100
96 5 -8 7 -17 5 -20 -7 -11 15 -233 30 -295 21 -90 97 -204 109 -162 2 6 9 38
16 70 8 39 22 70 42 93 35 40 54 43 64 12 12 -39 119 -189 196 -274 67 -75
130 -134 204 -192 l29 -23 -35 7 c-19 3 -52 8 -72 10 -75 8 -252 121 -264 170
-5 18 -13 24 -34 24 -34 0 -44 -13 -45 -60 -1 -19 -2 -65 -3 -102 -2 -60 -5
-69 -26 -84 -16 -10 -30 -13 -40 -7 -30 17 -162 192 -204 271 -31 58 -41 88
-37 105 7 28 -9 38 -41 26 -20 -7 -23 -17 -28 -116 -10 -158 -41 -200 -83
-112 -26 54 -47 198 -41 280 4 54 3 59 -16 59 -12 0 -41 -18 -66 -40 -47 -42
-48 -52 -2 -23 16 10 3 -8 -30 -42 -91 -96 -169 -218 -213 -337 -10 -26 -21
-45 -25 -43 -10 6 -30 -49 -30 -81 0 -35 -17 -37 -24 -3 -29 146 39 427 164
680 58 117 119 211 200 307 63 74 195 192 217 192 7 0 1 -21 -14 -52z m583 2
c-32 -47 -54 -105 -43 -116 2 -3 34 10 71 28 68 33 85 33 67 0 -31 -57 13
-276 76 -384 32 -55 47 -49 39 15 -7 57 4 119 27 151 13 17 15 17 48 -13 35
-33 119 -78 154 -83 18 -3 20 2 19 43 l-2 46 87 -44 c78 -39 114 -51 261 -81
44 -9 43 -10 -29 -11 -72 -1 -139 -16 -152 -35 -4 -5 -60 -9 -124 -10 -100 -1
-119 2 -130 17 -15 21 -58 22 -74 3 -14 -16 -7 -84 9 -100 21 -21 10 -44 -22
-49 -93 -14 -238 151 -238 271 0 31 -4 42 -15 42 -8 0 -15 -8 -15 -19 0 -24
-25 -45 -46 -37 -13 5 -15 20 -12 86 3 70 1 80 -14 80 -35 0 -65 -20 -99 -64
-19 -25 -38 -46 -43 -46 -16 0 4 113 29 168 33 72 80 129 134 164 66 42 77 36
37 -22z m-799 -759 c-12 -60 32 -366 79 -549 50 -196 164 -287 209 -168 13 34
16 70 13 180 -2 75 0 136 3 136 4 0 15 -30 25 -67 10 -38 24 -72 31 -76 7 -4
37 -56 67 -115 168 -327 356 -584 520 -710 87 -67 158 -85 173 -45 17 43 -74
310 -123 364 -9 10 -13 23 -9 29 4 6 -22 42 -59 81 -61 65 -90 110 -49 78 93
-74 202 -171 268 -240 101 -105 271 -309 287 -343 6 -15 20 -26 30 -26 18 0
19 5 13 58 -16 147 -58 307 -119 460 -56 139 -168 359 -201 394 -51 55 -20 52
67 -7 151 -101 370 -339 434 -472 31 -63 38 -72 53 -63 36 19 87 187 115 376
12 85 12 112 1 177 -26 150 -98 327 -163 399 -34 37 -34 38 -10 38 74 0 280
-73 399 -142 78 -45 90 -47 81 -13 -14 49 -159 149 -249 171 -40 10 -20 27 58
51 198 61 502 70 687 20 147 -39 138 -46 -54 -44 -183 1 -279 -14 -334 -53
-26 -19 -28 -25 -25 -74 3 -49 8 -60 82 -152 110 -138 283 -386 283 -406 0 -4
-19 -5 -43 -4 -56 4 -236 105 -260 146 -20 33 -52 44 -72 23 -19 -18 -19 -19
5 -58 21 -34 75 -193 109 -320 11 -38 24 -83 30 -98 13 -34 58 -245 72 -337 6
-36 10 -141 10 -235 1 -210 -7 -255 -93 -535 -29 -93 -79 -194 -138 -278 -28
-41 -53 -72 -55 -70 -3 2 5 46 16 98 11 52 24 118 30 145 17 83 23 341 10 444
-19 150 -73 321 -136 426 -33 55 -95 121 -121 129 -12 4 -24 16 -27 26 -10 38
-97 20 -141 -29 -10 -11 -16 -27 -13 -34 3 -8 -1 -27 -10 -43 -8 -16 -19 -51
-25 -79 -15 -71 -22 -344 -10 -369 6 -12 13 -39 16 -61 7 -52 67 -138 182
-262 65 -70 90 -103 84 -114 -4 -8 -11 -35 -14 -60 -9 -60 -62 -188 -107 -259
-38 -59 -107 -151 -203 -271 -82 -102 -354 -372 -451 -447 -44 -34 -84 -66
-90 -70 -5 -4 -37 -25 -71 -45 -33 -21 -78 -56 -99 -77 -53 -54 -74 -53 -40 2
49 80 125 238 160 330 149 401 135 802 -43 1198 -36 80 -159 291 -181 310 -4
3 -26 30 -50 60 -24 30 -71 80 -103 111 -32 32 -58 62 -58 68 0 6 -3 10 -8 8
-4 -1 -14 4 -22 11 -61 52 -81 68 -127 103 -29 22 -56 39 -59 38 -4 0 -10 3
-13 8 -9 12 -69 53 -77 53 -4 0 -15 6 -23 13 -9 8 -42 22 -73 31 -32 10 -56
23 -55 29 1 8 -17 13 -49 15 -89 5 -214 -61 -214 -113 0 -13 -11 -47 -25 -77
-31 -68 -47 -190 -40 -302 9 -149 -24 -174 -87 -65 -45 78 -89 185 -122 302
-36 125 -53 155 -96 177 -21 11 -40 26 -43 35 -15 36 -148 7 -231 -52 -47 -33
-118 -121 -109 -135 2 -5 -14 -35 -36 -67 -36 -53 -91 -200 -91 -242 0 -9 -7
-29 -15 -46 -8 -16 -20 -65 -26 -109 -14 -99 -22 -113 -31 -49 -17 132 -4 409
28 585 51 282 183 547 393 790 68 78 78 90 84 90 2 0 7 -48 10 -107 8 -150 47
-242 118 -279 101 -52 182 73 259 401 44 187 73 291 92 332 23 49 43 57 35 14z"/>
</g>
</svg>
